<svg xmlns="http://www.w3.org/2000/svg" xmlns:xlink="http://www.w3.org/1999/xlink" viewBox="0 0 600 600"><defs><style>.cls-1{fill:none;}.cls-2{isolation:isolate;}.cls-3{clip-path:url(#clip-path);}.cls-4{fill:#696f72;}.cls-5{fill:#161a20;}.cls-6{fill:#070c12;}.cls-7{fill:#302e2b;}.cls-8{fill:#090b0f;}.cls-9{fill:#03060e;}.cls-10{fill:#9a9ea0;}.cls-11{fill:#99a2a4;}.cls-12{fill:#a5aba6;}.cls-13{fill:#838a8e;}.cls-14{fill:#61605b;}.cls-15{fill:#2d323d;}.cls-16{fill:#939a9e;}.cls-17{fill:#9b9b92;}.cls-18{fill:#bec5c0;}.cls-19{fill:#8f908d;}.cls-20{fill:#b7bdbc;}.cls-21{fill:#8f9898;}.cls-22{fill:#060a17;}.cls-23{fill:#323236;}.cls-24{fill:#02060a;}.cls-25{fill:#091624;}.cls-26{fill:#050910;}.cls-27{fill:#7d8082;}.cls-28{fill:#a0c36e;}.cls-29{fill:#4c7b25;}.cls-30{fill:#73974b;}.cls-31{fill:#1d4613;}.cls-32{fill:#88ad60;}.cls-33{fill:#93ba55;}.cls-34{fill:#639347;}.cls-35{fill:#6ea033;}.cls-36{fill:#13141e;}.cls-37{fill:#8c8981;}.cls-38{fill:#b2aea5;}.cls-39{fill:#b8bebe;}.cls-40{fill:#b5bab6;}.cls-41{fill:#b1b7ba;}.cls-42{fill:#babdc0;}.cls-43{fill:#0f1415;}.cls-44{fill:#0a192c;}.cls-45{fill:#a4a29f;}.cls-46{fill:#050810;}.cls-47{fill:#091317;}.cls-48{fill:#80817f;}.cls-49{fill:#071017;}.cls-50{fill:#08121a;}.cls-51{fill:#6a696e;}.cls-52{fill:#ccccc4;}.cls-53{fill:#c8d0d3;}.cls-54{fill:#c7ccca;}.cls-55{fill:#040608;}.cls-56{fill:#d7dbd5;}.cls-57{fill:#a0a3a5;}.cls-58{fill:#b7c0c3;}.cls-59{fill:#c5c9c3;}.cls-60{fill:#050b15;}.cls-61{fill:#b9c1c6;}.cls-62{fill:#79786f;}.cls-63{fill:#737775;}.cls-64{fill:#070b0f;}.cls-65{fill:#0d0e17;}.cls-66{fill:#b2b7af;}.cls-67{fill:#1c1f26;}.cls-68{fill:#07080f;}.cls-69{fill:#b9bdb5;}.cls-70{fill:#191d1e;}.cls-71{fill:#cacdc6;}.cls-72{fill:#969c9f;}.cls-73{fill:#b6b9aa;}.cls-74{fill:#878f92;}.cls-75{fill:#1c1f24;}.cls-76{fill:#b2b5af;}.cls-77{fill:#aab0b1;}.cls-78{fill:#0b0f18;}.cls-79{fill:#3d6a42;opacity:0.5;mix-blend-mode:screen;}</style><clipPath id="clip-path"><rect class="cls-1" x="-6.68" y="-5.37" width="605.91" height="605.91"/></clipPath></defs><title>giants-causeway</title><g class="cls-2"><g id="Layer_2" data-name="Layer 2"><g class="cls-3"><polygon class="cls-4" points="128.75 634.89 220 571.05 220 486.51 76.72 409.44 -71.96 443.07 -128.6 585.56 128.75 634.89"/><polygon class="cls-5" points="141.18 637.45 128.84 635 220 571.05 220 592.51 141.18 637.45"/><polygon class="cls-5" points="220 486.74 228.41 593.44 220 592.51 220 571.51 220 486.74"/><polygon class="cls-6" points="228.29 409.42 221.76 512.08 219.94 486.73 77 409.44 77 358.51 228.29 409.42"/><polygon class="cls-7" points="328 345.41 228.15 409.42 221.73 512.08 328 444.81 328 345.41"/><polygon class="cls-8" points="464.1 429.06 466.76 448 456 448 456 450.51 472.29 460.56 474.67 486.74 434.35 464.26 399.39 454.81 332.4 448.23 315.57 452.58 328 444.81 328 402.51 357.63 419.47 406.45 430.69 464.1 429.06"/><polygon class="cls-5" points="509.83 388.5 464.1 428.82 466.76 447.51 467.76 441.39 482.19 426.28 492.31 418.01 497.64 407.22 503.3 403.78 503.99 407.22 510.69 402.51 509.83 388.5"/><polygon class="cls-9" points="471.98 460.55 481.09 454.95 491.25 449.97 506.55 433.32 512.05 428.06 510.69 424 512.65 424 514.12 418.97 510.69 413.35 512.06 410.2 508.97 406.22 510.69 402.52 510.04 391.94 520.99 410.31 527.34 413.75 543.93 411.34 556 414.72 565.9 411.58 572.18 414.23 578.45 413.03 583.04 413.99 587.63 413.27 606.22 416.89 610.08 415.44 640.98 418.01 643.15 457.69 634.94 454.79 625.53 458.41 616.84 461.79 602.84 460.1 546.1 449.48 510.69 456.24 478.51 480.38 474.58 486.74 471.98 460.55"/><polygon class="cls-10" points="228.06 593.44 221.47 512.08 315.39 452.58 332.39 448.23 399.37 454.81 434.3 464.26 474.58 486.74 482.08 496.86 527.34 591.36 372.85 648.04 371.35 664.09 365.33 661.58 362.32 679.64 351.29 676.63 344.76 651.55 228.06 593.44"/><polygon class="cls-11" points="527.59 591.42 578.62 605.54 582.61 629.45 626.18 662.59 634.47 688.24 661.39 637.45 737.64 614.7 760 625.93 760 548.51 668.72 461.06 546.19 449.48 510.73 456.24 478.53 480.38 474.59 486.74 482.08 496.86 527.59 591.42"/><polygon class="cls-12" points="456 450.51 472.15 460.55 491.34 449.97 512.1 428.06 510.69 424 512.65 424 514.12 418.97 510.69 413.35 512.06 410.2 508.97 406.22 510.69 402.52 503.99 407.23 503.3 403.79 497.64 407.22 492.31 418.01 467.76 441.63 466.76 448 456 448 456 450.51"/><polygon class="cls-13" points="142.05 282.51 76.65 358.51 227.97 409.42 327.65 345.41 288.72 292.44 268.48 291.29 237.54 295.11 142.05 282.51"/><polygon class="cls-14" points="119 247.75 173.55 286.65 182.98 282.51 288.75 292.44 334.95 251.57 306.68 208.79 205.08 206.5 139 242.02 124.99 230.56 119 236.68 119 247.75"/><polygon class="cls-15" points="351.29 676.63 344.76 651.55 228.41 593.44 219.65 592.51 141.01 637.45 351.29 676.63"/><polygon class="cls-16" points="464.1 428.86 406.36 430.59 357.63 419.48 328 402.51 328 345.51 315.56 328.73 327.74 312.31 371.39 299.72 464.12 319.09 509.84 388.5 464.1 428.86"/><polygon class="cls-17" points="332.7 279 321.38 286.17 300.65 308.78 315.39 328.78 327.65 312.34 371.35 299.73 353.77 287.38 342.06 279 332.7 279"/><polygon class="cls-18" points="334.93 251.57 332.7 279 321.38 286.17 300.65 308.65 288.71 292.44 334.93 251.57"/><polygon class="cls-19" points="503.07 259.37 478.46 290.39 412.6 303.62 371.35 299.96 342.06 279 332.65 279 334.93 251.82 324.5 235.91 364.22 206.56 367.67 212.61 418.4 209.15 415.93 213.57 412.61 218.99 430.71 222.43 437.6 229.82 503.07 259.37"/><polygon class="cls-20" points="640.95 418.01 587.6 413.27 583.02 413.99 578.45 413.03 572.17 414.23 565.9 411.58 556 414.72 543.93 411.34 527.34 413.74 510.04 391.93 509.83 388.5 465.86 321.77 473.26 312.76 488.94 305.51 490.35 303.62 496.42 295.44 514.12 286.68 527.34 289.87 596.03 286.68 667.82 328.72 694 361.68 694 379 689.65 379 679.65 390.03 677.92 395.01 667.65 404.57 657.62 406.53 640.95 418.01"/><polygon class="cls-21" points="486.86 303.11 490.08 303.64 491.52 301.87 487.33 300.36 483.94 301.99 479.74 300.36 474.57 302.91 470.57 301.99 469.22 299.72 462 297.94 462 293.51 421.9 301.78 430.01 302.6 430.83 305 432.65 305 437.75 309.78 436.55 303.74 438.36 300.56 448.29 298.13 452.81 303.63 460.94 305.52 462.29 303.62 464.7 304.42 465.86 306.53 474.58 308.33 477.2 305.51 479.46 303.86 480.51 306 482.65 306 486.86 303.11"/><polygon class="cls-22" points="465.86 321.77 464.1 319.09 371.35 299.71 412.6 303.62 421.72 301.78 429.93 302.6 430.83 305 432.65 305 437.75 309.78 436.55 303.74 438.36 300.56 448.29 298.13 452.81 303.63 460.94 305.52 462.29 303.62 464.7 304.42 465.86 306.53 474.58 308.33 479.46 303.86 480.51 306 482.65 306 486.86 303.11 490.08 303.64 488.94 305.57 473.26 312.79 465.86 321.77"/><polygon class="cls-23" points="503.07 259.39 478.46 290.41 462 293.51 462 298 469.22 299.72 470.57 301.99 474.57 302.91 479.74 300.36 483.94 301.99 487.33 300.36 491.52 301.87 496.42 295.44 504.48 263.97 503.07 259.39"/><polygon class="cls-24" points="514.35 286.45 496.54 295.32 504.54 263.92 503.1 259.37 437.62 229.8 430.71 222.43 412.61 218.98 418.4 209.15 367.67 212.61 364.22 206.56 324.5 235.91 306.68 208.79 205.08 206.5 139 242.02 124.99 230.56 112.5 231.91 105.66 230.77 84.02 234.19 61.24 233.62 39.58 237.61 -6 230.77 -6 153 12.24 150.39 27.45 154.96 135.41 162.56 186.1 150.39 187.11 171.18 198.26 146.34 193.19 136.2 178.5 125.56 176.97 112.38 182.55 115.42 183.56 100.11 208.91 137 247 137 257.57 141.68 265.68 136 312 136 320.92 140.26 327.65 134.68 374.65 149.89 398.98 150.9 404.56 156.47 406.08 151.41 430.71 150.39 439.53 154.45 441.56 161.54 449.67 159.52 462 192.46 516.57 232.5 572.84 236.56 579.93 241.12 597.79 236.05 605 234.53 605 246 585.51 251.57 590.07 255.09 595.14 259.39 600.65 255.09 605 251.57 605 292 596.03 286.68 527.34 289.87 514.35 286.45"/><polygon class="cls-25" points="111.14 295.44 113.4 287.01 108.88 282.54 111.14 259.87 119 236.68 119 248 173.55 286.65 142.05 282.51 76.65 358.51 83.14 343.41 74.55 336.63 76.65 330.31 70.49 322.18 67.33 317.66 70.04 305.51 79.07 295.32 80.88 289.21 92.62 285.6 105.72 289.21 111.14 295.44"/><polygon class="cls-26" points="49.11 415.94 55.3 404 60 404 63.63 392.76 76.65 380.91 77 409.44 49.11 415.94"/><polygon class="cls-27" points="0.03 426.84 -63.72 441.23 -140.44 409.43 -94.48 319.82 -51.74 303.89 -29.96 308.66 4.71 303.62 110.37 267.56 108.88 282.54 113.4 287.01 111.14 295.44 105.72 289.21 92.62 285.6 80.88 289.21 79.07 295.32 70.04 305.51 67.33 317.66 76.65 330.31 74.55 336.63 83.31 343.41 77 358.51 77 381 63.63 392.76 60 404 55 404 49.11 415.94 0.03 426.84"/><polygon class="cls-28" points="119.13 237.08 111.2 260.07 103.07 255.38 75.02 263 65 263 59.9 268 46 268 46 258 54.74 255.09 58.06 260.04 63.06 252.59 73.54 249.38 77 244 85 244 119.13 237.08"/><polygon class="cls-29" points="110.42 267.48 111.23 260.04 103.08 255.36 75.02 263 65 263 60 268 60 275 75.03 279.62 110.42 267.48"/><polygon class="cls-30" points="46 268 34.1 271.46 31.15 279 24.14 282.51 15.3 295.32 4.71 303.62 75.03 279.62 60 275 60 268 46 268"/><polygon class="cls-31" points="125.02 230.33 112.51 231.79 105.67 230.71 84.02 234.16 61.24 233.61 39.58 237.6 -6 230.77 -9.4 252.54 0 247.5 29.67 254.85 34.84 249 43 249 47.09 251.57 51.63 244.14 67.33 245.79 73.32 241.12 77 244 85 244 119.13 237.08 125.02 230.33"/><polygon class="cls-32" points="46 268 34.1 271.46 32.98 265.84 28.51 257.6 29.67 254.85 34.84 249 43 249 47.09 251.57 51.63 244.14 67.33 245.79 73.32 241.12 77 244 73.54 249.38 63.06 252.59 58.06 260.04 54.74 255.09 46 258 46 268"/><polygon class="cls-33" points="26.32 266.01 14.22 270.29 12.3 279.6 3.33 272.84 2.31 278.09 -2 274.56 -2 261 0.65 254.07 4.71 259.25 12.16 255.36 21.44 261.37 28.51 257.6 26.32 266.01"/><polygon class="cls-34" points="4.71 303.84 -2.82 305.05 -5.41 299.82 -13.89 300.73 -18.84 289.65 -2 287.51 -2 275 2.31 278.09 3.33 272.84 12.3 279.6 14.22 270.29 26.32 266.01 28.51 257.6 32.98 265.84 34.1 271.46 31.15 279 24.14 282.51 15.3 295.32 4.71 303.84"/><polyline class="cls-35" points="29.67 254.85 28.51 257.6 21.44 261.37 12.16 255.36 4.71 259.25 0.65 254.07 -2 261 -9.4 252.54 0 247.5 29.67 254.85"/><polyline class="cls-36" points="288.71 292.44 182.98 282.51 173.55 286.65 237.54 295.11 268.48 291.29 288.71 292.44"/><polygon class="cls-37" points="502.32 600.54 527.59 591.42 578.62 605.54 582.61 629.45 565.46 616.44 502.32 600.54"/><polygon class="cls-38" points="585.51 251.57 595.14 259.39 605 251.57 605 246 585.51 251.57"/><polygon class="cls-39" points="605 234.53 597.79 236.05 579.93 241.12 572.84 236.56 516.57 232.5 462 192.46 449.67 159.52 446.48 160.31 445.29 158.35 452.82 151.69 458.4 154.7 460.34 160.07 474.09 163.72 490 153.62 585.51 172.32 630.33 200.47 605 234.53"/><polygon class="cls-40" points="577.14 170.68 598.01 154.33 560.98 129.4 489.2 135.06 490 153.62 577.14 170.68"/><polygon class="cls-41" points="489.2 127.89 439.53 154.45 430.71 150.39 406.08 151.41 404.56 156.47 398.98 150.9 374.65 149.89 327.65 134.68 350.17 103.33 369.81 107.48 388.7 97.28 420.06 105.22 432.91 100.11 434.1 100.89 423.47 108.06 441.33 114.27 449.09 112.46 489.2 127.89"/><polygon class="cls-42" points="183.65 99.96 227.02 73.92 256.76 82.33 231.19 97 252 97 271.52 108.04 288.71 104.01 296.17 105.36 327.65 97.28 345.33 110.06 327.65 134.68 320.92 140.26 312 136 266 136 257.57 141.68 247 137 209 137 183.65 99.96"/><polygon class="cls-43" points="330.23 54.27 337.46 104.37 327.65 97.28 274.66 93.7 268.39 73.92 274.66 39.04 279.59 22.01 282.28 29.63 288.71 27.39 334.93 37.69 337.46 46.65 322.79 49.98 330.23 54.27"/><polygon class="cls-44" points="296.07 105.36 288.66 104.01 271.5 108.04 252 97 231 97 256.76 82.33 227.02 73.92 229.86 64.95 268.39 73.92 274.66 93.7 327.65 97.28 296.07 105.36"/><polygon class="cls-45" points="408 32 408 38 408.42 49.39 388.7 97.28 369.81 107.48 350.17 103.33 345.33 110.06 337.46 104.37 330.23 54.27 322.79 49.98 337.46 46.65 334.93 37.69 341.47 32 345.33 33.43 348.12 41.74 368.4 34.76 393 33.76 408 32"/><polygon class="cls-46" points="479.13 71.03 489.2 127.89 449.09 112.46 441.33 114.27 423.47 108.06 434.1 100.89 432.91 100.11 420.06 105.22 388.7 97.28 408.42 49.39 408 38 421.98 44.65 424.02 42.38 436.96 46.02 437.42 49.42 451.95 48.28 452.4 50.78 455.12 52.37 456.26 49.19 461.48 51.46 479.13 71.03"/><polygon class="cls-47" points="446.38 160.28 441.51 161.53 439.41 154.44 489 127.89 489 135 490 153.62 474.09 163.72 460.34 160.07 458.4 154.7 452.82 151.69 445.29 158.35 446.38 160.28"/><polygon class="cls-48" points="561 129.4 561 123.14 561.01 93 570.37 82.94 569.78 111.69 569.31 135 561 129.4"/><polygon class="cls-49" points="561 129 561 93 556.15 87.11 537.81 82.94 533.67 76.44 489.2 68.26 479.02 71.03 489 127.89 489 135 560.98 129.4 561 129"/><polyline class="cls-47" points="446.48 160.31 441.56 161.54 439.53 154.45 489.2 127.89 490 153.62 474.09 163.72 460.34 160.07 458.4 154.7 452.82 151.69 445.29 158.35 446.48 160.31"/><polygon class="cls-50" points="603.92 101.63 611.85 108.9 614.55 141.31 610.59 158.06 612.02 164.54 611.13 168.32 603.2 166.52 597.08 169.58 598.01 154.33 569.3 135 569.78 111.69 576.37 107.64 581.23 105.12 603.92 101.63"/><polygon class="cls-51" points="589.17 174.62 597.08 169.58 598.01 154.33 577.14 170.68 585.51 172.32 589.17 174.62"/><polygon class="cls-52" points="611.13 168.32 603.2 166.52 589.17 174.62 600.15 181.51 611.13 168.32"/><polygon class="cls-53" points="630.33 88.25 618.12 98.46 603.92 101.63 581.23 105.12 569.78 111.69 570.37 82.94 561 93 556.15 87.11 537.81 82.94 533.67 76.44 489.2 68.26 479.02 71.03 461.48 51.46 456.26 49.19 455.12 52.37 452.4 50.78 451.95 48.28 437.42 49.42 436.96 46.02 424.02 42.38 421.98 44.65 408 38 408 32 393 33.76 422.5 18.07 426.48 0 429.22 -2.33 443.65 11.1 473.27 25.29 573.07 45.95 587.01 71.08 630.33 88.25"/><polygon class="cls-54" points="632 82.94 612.59 81.23 586.99 71.08 577.9 54.67 614.52 61.13 632 77.55 632 82.94"/><polygon class="cls-55" points="595.73 54.53 583.53 55.6 577.9 54.64 575.47 50.27 577.9 50.72 581.62 50 593 50 593.44 52.8 595.73 54.53"/><polygon class="cls-56" points="601.95 53.91 595.82 54.53 593.48 52.8 593 50 582 50 577.9 50.72 575.47 50.27 573.07 45.95 516.11 34.16 525.29 24.27 540.9 23 566.55 29.05 574.36 35.27 597.46 36.86 600.65 41.96 608.46 45.46 601.95 53.91"/><polygon class="cls-57" points="600 59 583.53 55.81 601.95 54.23 601.4 59 600 59"/><polygon class="cls-58" points="279.59 22.01 329.31 10.76 408 32 368.4 34.76 348.12 41.74 345.33 33.43 341.47 32 334.93 37.69 288.71 27.39 282.28 29.63 279.59 22.01"/><polygon class="cls-59" points="525.29 24.27 507.97 7.71 478.23 -2.33 440.09 7.79 443.65 11.1 473.27 25.29 516.11 34.16 525.29 24.27"/><polygon class="cls-60" points="431.62 0.17 440.03 8.04 478.23 -2 429 -2 431.62 0.17"/><polygon class="cls-60" points="500.6 5.14 478.23 -2 502 -2 500.6 5.14"/><polygon class="cls-60" points="512.35 11.76 508.04 7.71 500.63 5.14 502.15 -2 525 -2.33 525 0 512.82 5.51 512.35 11.76"/><polygon class="cls-60" points="542.81 4.65 525 0 525 -2 608 -2 608 45 600.65 41.96 597.46 36.86 574.36 35.27 566.55 29.05 566.5 26.05 575.47 18.61 542.81 4.65"/><polygon class="cls-61" points="526.51 17.98 566.5 26.05 575.47 18.61 542.81 4.65 525 0 512.82 5.51 526.51 17.98"/><polygon class="cls-62" points="512.35 11.76 512.82 5.51 526.51 17.98 566.5 26.05 566.55 29.05 540.9 23 525.29 24.27 512.35 11.76"/><polygon class="cls-63" points="345.33 -22.02 426.48 0 422.5 18.07 400.25 29.91 329.31 10.76 333.15 8.04 329.31 0 318.59 5.51 293.25 0 285.09 -7.16 282.76 -19.98 300.65 -24.34 345.33 -22.02"/><polygon class="cls-64" points="279.59 22.01 285.09 -7.16 293.25 0 318.59 5.51 319.94 12.88 279.59 22.01"/><polygon class="cls-65" points="329.31 0 318.59 5.51 319.94 12.88 329.31 10.76 333.15 8.04 329.31 0"/><polygon class="cls-66" points="212.35 41.74 229.9 64.95 268.41 73.92 274.67 39.04 265.87 38 220 38 212.35 41.74"/><polygon class="cls-67" points="274.67 -10.07 271.4 0 250.14 2.78 248.68 38 220 38 212.35 41.74 216.64 24.01 212.35 24.88 211.11 15.83 228.88 -2.33 274.67 -10.07"/><polygon class="cls-68" points="285.09 -7.16 274.67 -10.07 271.4 0 250.14 2.78 248.68 38 274.67 39.04 279.59 22.01 285.09 -7.16"/><polygon class="cls-69" points="227.02 73.92 228.9 67.97 218.78 55.96 207.86 48.05 160.92 44.78 111.53 53.24 116.17 71.25 137.18 75.34 145.37 89.26 163.38 81.62 227.02 73.92"/><polygon class="cls-70" points="226.92 73.67 163.33 81.25 181.12 86 195 86 213.35 82.13 226.92 73.67"/><polygon class="cls-71" points="145.37 89.26 163.33 81.25 181.12 86 195 86 213.35 82.13 183.65 99.96 182.55 115.42 176.97 112.38 156.01 104.22 145.37 89.26"/><polygon class="cls-72" points="176.97 112.35 178.5 125.54 189.53 133.54 187.38 143.91 171.31 145.07 159.2 156.85 135.41 162.56 27.45 154.96 12.24 150.39 -6 153 -6 121 73.34 113.13 96.97 113.51 132.39 108.87 135.49 106.16 145.37 108.87 156.01 104.22 176.97 112.35"/><polygon class="cls-73" points="187.11 171.18 198.26 146.34 193.19 136.2 189.53 133.54 187.38 143.91 171.31 145.07 159.2 156.85 186.1 150.39 187.11 171.18"/><polygon class="cls-74" points="156.01 104.4 138.46 101.24 95.93 102.73 42.91 116.17 -6 121 -6 91 41.73 71.63 79.92 65.96 137.18 75.34 156.01 104.4"/><polygon class="cls-75" points="156.01 104.4 145.37 108.87 135.49 106.16 132.39 108.87 96.97 113.51 73.34 113.13 42.91 116.17 95.93 102.73 138.46 101.24 156.01 104.4"/><polygon class="cls-76" points="116.08 71.19 79.88 65.93 41.7 71.62 -6 67.02 -6 35 20.42 31.24 79.11 36.16 95.49 35.72 104.22 45 116 45 124.8 50.97 111.53 53.24 116.08 71.19"/><polygon class="cls-77" points="-6 91 41.7 71.62 -6 67.02 -6 91"/><polygon class="cls-78" points="228.77 -2.33 211.05 15.83 212.32 24.88 216.63 24.01 212.34 41.74 229.9 64.95 228.9 67.97 218.78 55.96 207.86 48.05 160.92 44.78 124.8 50.97 116 45 104 45 95.49 35.72 79.11 36.16 20.42 31.24 -6 35 -6.68 -5.37 228.77 -2.33"/></g></g><g id="Layer_3" data-name="Layer 3"><rect class="cls-79" width="600.54" height="600.54"/></g></g></svg>