<svg id="Layer_1" data-name="Layer 1" xmlns="http://www.w3.org/2000/svg" viewBox="0 0 205 205"><defs><style>.cls-1{fill:#6c9070;}</style></defs><title>iconCode</title><path class="cls-1" d="M102.5,2.5a100,100,0,1,0,100,100A100,100,0,0,0,102.5,2.5Zm-23,50H78.85c-9.32,0-12.48,3.54-12.48,12.08A60.39,60.39,0,0,0,67.47,75c0.63,4-.24,7.37-0.24,11.63,0.16,10.11-5.73,14.79-12.73,16.69v0.32c7,1.74,12.89,7.11,12.73,17.22,0,4.27.2,8.22-.43,12A92.51,92.51,0,0,0,66,146c0,8.85,4,15.48,12.82,15.48H79.5v8H78.38c-13.12,0-22.91-7.07-22.91-23a99.63,99.63,0,0,1,1.26-13.65c0.63-4.27-.08-8.88-0.08-13.15,0-4.9-2.15-12-14.15-12V99.57c12,0,14.15-6.16,14.15-11.69a93.29,93.29,0,0,0-.59-13.27,67.63,67.63,0,0,1-.93-11.26c0-14.54,9.82-18.84,23.25-18.84H79.5v8Zm78,55.13c-12,0-11.75,6.8-11.75,11.69,0,4.27,1.16,8.53,1.79,12.8a110.42,110.42,0,0,1,1.53,14.34c0,16-9.69,23-22.65,23H120.5v-8h5.29c8.85,0,12.64-6.63,12.64-15.48a110.14,110.14,0,0,0-1.11-12.24c-0.63-3.79-2.73-8.18-2.73-12.44,0-10.11,2.91-15.92,9.91-17.66v-0.32c-7-1.9-9.91-7-9.91-17.07,0-4.27,1.37-8.06,2-12,0.47-3.79,1.47-6.07,1.47-9.71,0-8.53-3-12.08-12.12-12.08H120.5v-8h5.76c13.43,0,23.07,4.3,23.07,18.84a79.7,79.7,0,0,1-1.26,12.19c-0.63,4.42-2.32,8.38-2.32,12.81,0,5.53-.25,11.23,11.75,11.23v8.06Z"/></svg>