<?xml version="1.0" encoding="utf-8"?>
<!-- Generator: Adobe Illustrator 19.2.0, SVG Export Plug-In . SVG Version: 6.00 Build 0)  -->
<svg version="1.1" id="Layer_1" xmlns="http://www.w3.org/2000/svg" xmlns:xlink="http://www.w3.org/1999/xlink" x="0px" y="0px"
	 viewBox="0 0 205 205" style="enable-background:new 0 0 205 205;" xml:space="preserve">
<style type="text/css">
	.st0{fill:#6C9070;}
</style>
<title>iconConcept</title>
<rect x="74.5" y="61.5" class="st0" width="56" height="90"/>
<circle class="st0" cx="102.5" cy="160.9" r="5.4"/>
<path class="st0" d="M97,51.5H108c0.3,0,0.5,0.2,0.5,0.5V53c0,0.3-0.2,0.5-0.5,0.5H97c-0.3,0-0.5-0.2-0.5-0.5V52
	C96.5,51.7,96.7,51.5,97,51.5z"/>
<path class="st0" d="M102.5,2.5c-55.2,0-100,44.8-100,100s44.8,100,100,100s100-44.8,100-100S157.7,2.5,102.5,2.5z M135.5,161.7
	c0,4.9-3.9,8.8-8.8,8.8H77.3c-4.9,0-8.8-3.9-8.8-8.8V52.3c0-4.9,3.9-8.8,8.8-8.8l0,0h49.4c4.9,0,8.8,3.9,8.8,8.8L135.5,161.7
	L135.5,161.7z"/>
</svg>
