<?xml version="1.0" encoding="utf-8"?>
<!-- Generator: Adobe Illustrator 19.2.0, SVG Export Plug-In . SVG Version: 6.00 Build 0)  -->
<svg version="1.1" id="Layer_1" xmlns="http://www.w3.org/2000/svg" xmlns:xlink="http://www.w3.org/1999/xlink" x="0px" y="0px"
	 viewBox="0 0 24 24" style="enable-background:new 0 0 24 24;" xml:space="preserve">
<style type="text/css">
	.st0{fill:#0E4513;}
	.st1{fill:#FD952C;stroke:#0E4513;stroke-width:0.5;stroke-miterlimit:10;}
</style>
<title  id="simpleicons-codepen-icon">CodePen icon</title>
<circle class="st0" cx="12.2" cy="12.1" r="11.2"/>
<path class="st1" d="M22,8.8L22,8.8V8.7c0,0,0,0,0-0.1l0,0V8.5l0,0V8.4l0,0h-0.1l0,0h-0.1l0,0l0,0l-9.1-6.1c-0.3-0.2-0.7-0.2-1,0
	l-9.3,6l0,0l0,0H2.3l0,0l0,0l0,0v0.1l0,0v0.1v0.1c0,0,0,0,0,0.1l0,0v0.1v6.3v0.1l0,0v0.1l0,0c0,0,0,0,0,0.1l0,0c0,0,0,0,0,0.1l0,0
	c0,0,0,0,0,0.1l0,0l0,0l0,0h0.1l0,0l0,0l9.2,6.1c0,0.3,0.2,0.3,0.4,0.3s0.3-0.1,0.5-0.2l9.2-6.1l0,0l0,0h0.1l0,0l0,0l0,0v-0.1l0,0
	v-0.1l0,0v-0.1l0,0v-0.1V9C22,8.9,22,8.9,22,8.8L22,8.8L22,8.8L22,8.8z M12,14.1l-3-2l3-2l3,2L12,14.1L12,14.1z M11.1,8.5L7.4,11
	l-3-2l6.8-4.5L11.1,8.5L11.1,8.5z M5.9,12l-2.2,1.4v-2.9L5.9,12L5.9,12z M7.4,13.1l3.7,2.5v4l-6.8-4.5L7.4,13.1L7.4,13.1L7.4,13.1z
	 M12.9,15.6l3.7-2.5l3,2l-6.8,4.5L12.9,15.6L12.9,15.6z M18.2,12l2.2-1.4v2.9L18.2,12L18.2,12z M16.6,11l-3.7-2.5v-4L19.6,9L16.6,11
	L16.6,11L16.6,11z"/>
</svg>
