<?xml version="1.0" encoding="utf-8"?>
<!-- Generator: Adobe Illustrator 19.2.0, SVG Export Plug-In . SVG Version: 6.00 Build 0)  -->
<svg version="1.1" id="Layer_1" xmlns="http://www.w3.org/2000/svg" xmlns:xlink="http://www.w3.org/1999/xlink" x="0px" y="0px"
	 viewBox="0 0 8 8" style="enable-background:new 0 0 8 8;" xml:space="preserve">
<style type="text/css">
	.st0{fill:#FD952C;}
</style>
<title  id="simpleicons-github-icon">GitHub icon</title>
<path class="st0" d="M4,0.4C2,0.4,0.3,2,0.3,4.1c0,1.6,1.1,3,2.5,3.5c0.2,0,0.3-0.1,0.3-0.2s0-0.3,0-0.6C2.1,7,1.8,6.3,1.8,6.3
	C1.7,5.9,1.4,5.8,1.4,5.8c-0.3-0.2,0-0.2,0-0.2C1.8,5.6,2,5.9,2,5.9c0.3,0.6,0.9,0.4,1.1,0.3c0-0.2,0.1-0.4,0.2-0.5
	c-0.8,0-1.7-0.4-1.7-1.8c0-0.4,0.1-0.7,0.4-1c0-0.1-0.1-0.5,0.1-1c0,0,0.3-0.1,1,0.4C3.4,2.2,3.7,2.2,4,2.2s0.6,0,0.9,0.1
	c0.7-0.5,1-0.4,1-0.4c0.2,0.5,0.1,0.9,0,1c0.2,0.3,0.4,0.6,0.4,1c0,1.4-0.9,1.7-1.7,1.8C4.7,5.8,4.9,6,4.9,6.4c0,0.5,0,0.9,0,1
	S5,7.6,5.2,7.6c1.5-0.5,2.6-1.9,2.6-3.5C7.7,2,6.1,0.4,4,0.4"/>
</svg>
