<?xml version="1.0" encoding="utf-8"?>
<!-- Generator: Adobe Illustrator 19.2.0, SVG Export Plug-In . SVG Version: 6.00 Build 0)  -->
<svg version="1.1" id="Layer_1" xmlns="http://www.w3.org/2000/svg" xmlns:xlink="http://www.w3.org/1999/xlink" x="0px" y="0px"
	 viewBox="0 0 24 24" style="enable-background:new 0 0 24 24;" xml:space="preserve">
<style type="text/css">
	.st0{fill:#FD952C;}
</style>
<title  id="simpleicons-linkedin-icon">LinkedIn icon</title>
<path class="st0" d="M19,19h-3v-4.6c0-1.1,0-2.5-1.5-2.5s-1.8,1.2-1.8,2.4V19h-3V9.5h2.8v1.3l0,0c0.4-0.7,1.4-1.5,2.8-1.5
	c3,0,3.6,2,3.6,4.5L19,19L19,19z M6.4,8.2c-1,0-1.7-0.8-1.7-1.7s0.8-1.7,1.7-1.7c1,0,1.7,0.8,1.7,1.7C8.2,7.4,7.4,8.2,6.4,8.2z
	 M7.9,19H5V9.5h3L7.9,19L7.9,19z M20.5,2h-17C2.7,2,2,2.6,2,3.4v17.1C2,21.4,2.7,22,3.5,22h17c0.8,0,1.5-0.6,1.5-1.4V3.4
	C22,2.6,21.3,2,20.5,2L20.5,2z"/>
</svg>
