<svg id="Layer_1" data-name="Layer 1" xmlns="http://www.w3.org/2000/svg" viewBox="0 0 100 150"><defs><style>.cls-1,.cls-2{fill:none;stroke-miterlimit:10;}.cls-1{stroke:#0e4513;stroke-width:2px;}.cls-2{stroke:#fd952c;}</style></defs><title>beard</title><path class="cls-1" d="M49.93,44.66a7.41,7.41,0,0,1,6-2.4c-1.87-2.27-4-7.06-2.13-16.52,4.93-8.53,16.66-9.59,22.92-6.26a9.61,9.61,0,0,1,5.2,9.73c-9.86,0-17.86,8.26-17.86,8.26a25.89,25.89,0,0,1,14,.67s-1.08-8-5.86-7.73c0,0,6-.8,4.4-9.06s-4.8-8.8-11.86-8.8-11.2.77-11.33,11.86,16.74,6.21,18.79,6"/><path class="cls-1" d="M50,44.66a7.41,7.41,0,0,0-6-2.4c1.87-2.27,4-7.06,2.13-16.52-4.93-8.53-16.66-9.59-22.92-6.26A9.61,9.61,0,0,0,18,29.2c9.86,0,17.86,8.26,17.86,8.26a25.89,25.89,0,0,0-14,.67s1.08-8,5.86-7.73c0,0-6-.8-4.4-9.06s4.8-8.8,11.86-8.8,11.2,0.77,11.33,11.86-16.74,6.21-18.79,6"/><path class="cls-2" d="M49.42,143.12s6.81-10.35,0-13.45a100.82,100.82,0,0,0,14.16-2.21c5.92-1.37,7.7-2.36,9.12-3.54,1-.84,5.71-4.77,4.69-9.91-0.7-3.53-4-7.21-8-7-2.37.13-5.71,1.71-6.19,5a6,6,0,0,0,4.34,6.46c1.73,0.45,4.62.25,5.84-2a4.61,4.61,0,0,0-1.68-6c-2.2-1.26-5.38-.31-6,1.59-0.49,1.48.49,3.72,2.12,4.07,1.17,0.25,2.7-.47,2.83-1.42s-1.25-2.13-2.48-2.21c-1.94-.14-3.78,2.35-4.6,4.25-2.36,5.44,2.39,8.9.44,15-0.69,2.14-2.59,5.77-5.4,5.84-2.12.05-5-1.5-5-3.89a4,4,0,0,1,3.1-3.81c1.36-.26,3.43.18,3.89,1.77a2.78,2.78,0,0,1-1.86,3.36,2.66,2.66,0,0,1-3.19-2,1.84,1.84,0,0,1,1.24-1.95,1.79,1.79,0,0,1,1.77,1.24c0.46,1.34-1.07,2.91-2,3.89a10.05,10.05,0,0,1-3.63,2.39,9.87,9.87,0,0,1-3.54.62"/><path class="cls-2" d="M49,127.27c6.55-1.51,8.91-4.05,9.81-6.18,2.06-4.81.12-13.21,0.12-13.21a21.06,21.06,0,0,0,8.36-4.36c3.54-3.25,5.14-9,3.27-11-1.18-1.26-4.06-1.31-5,0-0.78,1.13-.09,3.23,1.21,4.12,1.83,1.26,4.93.18,6.06-1.94,1.24-2.34-.25-5.38-2.18-6.42-3-1.6-7.9,1-8.84,4.85a6.51,6.51,0,0,0,2.3,6.54c3.28,2.51,7.59.22,8.24-.12a9.49,9.49,0,0,0,4.48-5.33c0.52-1.74.78-4.77-2.42-10.06-6.43-10.6-21-20.69-25.32-23.62,5.56-3.44,15.5-8.22,19.83-9.35a88.31,88.31,0,0,1,10.75-1.79s-7.58-4.9-9.38-5.78a21.27,21.27,0,0,0-11.27-2.17s5.92-4.88,21.31.92A19.94,19.94,0,0,1,90.84,52.4c4.09,8.87-.28,17.47-1,18.78a19,19,0,0,1-7.15,8A17.18,17.18,0,0,1,78.36,81s7.75,8.84,8.6,14.66c0,0,6.3-5.94.85-16.36,0,0-2,4.32-10.28,6.42,7.09,8.08,7.78,11.19,6.89,12.48-1.36,2-6.39-.41-9,2.54-1.31,1.51-1.89,4.3-.48,6.18a4.81,4.81,0,0,0,5.33,1.45,4.71,4.71,0,0,0,3.27-4.48,3.87,3.87,0,0,0-1.82-3c-1.94-1-4.83.34-5.09,2.06a2.52,2.52,0,0,0,1.82,2.67c1.32,0.28,2.64-1.17,3-2.3,0.72-2.06-1-5-4.24-7.14a35,35,0,0,0,10.17-8.76c2.38-3,4.82-6.16,5.39-10.78,0.6-4.85-1.2-8.65-3.16-12.79a39.49,39.49,0,0,0-6.76-10S68.76,53.35,49,65.93a26.83,26.83,0,0,1,9.83,7.29,107,107,0,0,0-9.54,5.11s8,5,11.82,10.76c0,0-7.62,4.92-12.11,10.85a32.38,32.38,0,0,1,7.27,11.49,22.41,22.41,0,0,1-7,8.93"/><path class="cls-2" d="M49.33,114.62s7.26-10.76,10-11.21L49.22,92.93S62,82.7,65.71,83.39c0,0-13-12.53-16.38-12.71,0,0,17.1-11.12,21.66-10.58,0,0-11-10-21.4-13a14.85,14.85,0,0,1,8-2.49c4.1,0,7,1.58,11.67,4.23,3.57,2,7.15,4,10.48,8.11,2,2.47,4.4,5.39,4.74,9.76,0.13,1.59.44,5.58-2.46,8.66a9.89,9.89,0,0,1-8.11,2.92c-3.24-.46-6.94-2.8-7.66-6.75a7.85,7.85,0,0,1,3-7.75,7.49,7.49,0,0,1,8.39-.27c1.87,1.24,3.9,3.92,3.1,6.93a5.83,5.83,0,0,1-5.56,4.38c-3-.11-5.83-3-5.29-5.38C70.34,67.58,73,65.73,75,66.66a3.44,3.44,0,0,1,1.64,4.29c-0.27.61-.79,1.07-2.83,1.91A34.08,34.08,0,0,1,68,74.7s-13,4.67-18.3,10.59A50.85,50.85,0,0,1,60.87,95.7s-8.2,5.87-11.29,10.91a29.36,29.36,0,0,1,4.62,7.88,7,7,0,0,1,.93,3.92,7.55,7.55,0,0,1-3.1,4.74,9.12,9.12,0,0,1-2.81,1.46"/><path class="cls-2" d="M49.57,143.12s-6.81-10.35,0-13.45a100.82,100.82,0,0,1-14.16-2.21c-5.92-1.37-7.7-2.36-9.12-3.54-1-.84-5.71-4.77-4.69-9.91,0.7-3.53,4-7.21,8-7,2.37,0.13,5.71,1.71,6.19,5a6,6,0,0,1-4.34,6.46c-1.73.45-4.62,0.25-5.84-2a4.61,4.61,0,0,1,1.68-6c2.2-1.26,5.38-.31,6,1.59,0.49,1.48-.49,3.72-2.12,4.07-1.17.25-2.7-.47-2.83-1.42s1.25-2.13,2.48-2.21c1.94-.14,3.78,2.35,4.6,4.25,2.36,5.44-2.39,8.9-.44,15,0.69,2.14,2.59,5.77,5.4,5.84,2.12,0.05,5-1.5,5-3.89a4,4,0,0,0-3.1-3.81c-1.36-.26-3.43.18-3.89,1.77a2.78,2.78,0,0,0,1.86,3.36,2.66,2.66,0,0,0,3.19-2,1.84,1.84,0,0,0-1.24-1.95,1.79,1.79,0,0,0-1.77,1.24c-0.46,1.34,1.07,2.91,2,3.89a10.05,10.05,0,0,0,3.63,2.39,9.87,9.87,0,0,0,3.54.62"/><path class="cls-2" d="M49.95,127.27c-6.55-1.51-8.91-4.05-9.81-6.18-2.06-4.81-.12-13.21-0.12-13.21a21.06,21.06,0,0,1-8.36-4.36c-3.54-3.25-5.14-9-3.27-11,1.18-1.26,4.06-1.31,5,0,0.78,1.13.09,3.23-1.21,4.12-1.83,1.26-4.93.18-6.06-1.94-1.24-2.34.25-5.38,2.18-6.42,3-1.6,7.9,1,8.84,4.85a6.51,6.51,0,0,1-2.3,6.54c-3.28,2.51-7.59.22-8.24-.12a9.49,9.49,0,0,1-4.48-5.33c-0.52-1.74-.78-4.77,2.42-10.06,6.43-10.6,20.3-20.69,24.66-23.62C43.61,57.07,34.32,52.29,30,51.16a88.31,88.31,0,0,0-10.75-1.79s7.58-4.9,9.38-5.78a21.27,21.27,0,0,1,11.27-2.17s-5.92-4.88-21.31.92A19.94,19.94,0,0,0,8.15,52.4c-4.09,8.87.28,17.47,1,18.78a19,19,0,0,0,7.15,8A17.18,17.18,0,0,0,20.63,81S12.88,89.84,12,95.65c0,0-6.3-5.94-.85-16.36,0,0,2,4.32,10.28,6.42-7.09,8.08-7.78,11.19-6.89,12.48,1.36,2,6.39-.41,9,2.54,1.31,1.51,1.89,4.3.48,6.18a4.81,4.81,0,0,1-5.33,1.45,4.71,4.71,0,0,1-3.27-4.48,3.87,3.87,0,0,1,1.82-3c1.94-1,4.83.34,5.09,2.06a2.52,2.52,0,0,1-1.82,2.67c-1.32.28-2.64-1.17-3-2.3-0.72-2.06,1-5,4.24-7.14a35,35,0,0,1-10.17-8.76c-2.38-3-4.82-6.16-5.39-10.78-0.6-4.85,1.2-8.65,3.16-12.79a39.49,39.49,0,0,1,6.76-10s13.24-.48,33,12.1a29,29,0,0,0-8.93,7.29s2.25,1.09,9.21,5.11c0,0-7.66,5-11.49,10.76A62.78,62.78,0,0,1,49,99.94a38.76,38.76,0,0,0-6.37,11.49,22.41,22.41,0,0,0,7,8.93"/><path class="cls-2" d="M49.66,114.62s-7.26-10.76-10-11.21l9.56-10.48S37,82.7,33.28,83.39c0,0,13-12.53,16.38-12.71,0,0-17.1-11.12-21.66-10.58,0,0,11.17-10,21.6-13a15.67,15.67,0,0,0-8.2-2.49c-4.1,0-7,1.58-11.67,4.23-3.57,2-7.15,4-10.48,8.11-2,2.47-4.4,5.39-4.74,9.76-0.13,1.59-.44,5.58,2.46,8.66a9.89,9.89,0,0,0,8.11,2.92c3.24-.46,6.94-2.8,7.66-6.75a7.85,7.85,0,0,0-3-7.75,7.49,7.49,0,0,0-8.39-.27c-1.87,1.24-3.9,3.92-3.1,6.93a5.83,5.83,0,0,0,5.56,4.38c3-.11,5.83-3,5.29-5.38C28.65,67.58,26,65.73,24,66.66a3.44,3.44,0,0,0-1.64,4.29c0.27,0.61.79,1.07,2.83,1.91A34.08,34.08,0,0,0,31,74.7s13.3,4.67,18.63,10.59A48.61,48.61,0,0,0,38.12,95.7s8.37,5.87,11.46,10.91a30.84,30.84,0,0,0-4.79,7.88,7,7,0,0,0-.93,3.92,7.55,7.55,0,0,0,3.1,4.74,9.12,9.12,0,0,0,2.81,1.46"/></svg>