<?xml version="1.0" encoding="utf-8"?>
<!-- Generator: Adobe Illustrator 19.2.0, SVG Export Plug-In . SVG Version: 6.00 Build 0)  -->
<svg version="1.1" id="Layer_1" xmlns="http://www.w3.org/2000/svg" xmlns:xlink="http://www.w3.org/1999/xlink" x="0px" y="0px"
	 viewBox="0 0 1280 103.4" style="enable-background:new 0 0 1280 103.4;" xml:space="preserve">
<style type="text/css">
	.st0{fill:none;stroke:#3D6A42;stroke-width:30;stroke-miterlimit:10;}
	.st1{fill:#6D8F71;}
</style>
<title>celticBorder001</title>
<path class="st0" d="M1261.5,60.5c-8.6-6.4-23.6-16-48.2-24.6c-11.7-4.1-51.1-18.5-99.6-18.5c-53.4,0-100.8,21.1-142.8,33.5
	c-56.2,16.6-60.9,21-110.7,34.5c-82.1,22.3-112.5,22.9-128.3,22.6c-28-0.7-55.9-4.7-83-11.7c-14.6-3.9-23-7.4-39-13.8
	c-37.2-14.9-72.1-28.1-83.9-32.4C485.9,35.4,435,16.9,370,18c-32.2,0.7-64.2,5.8-95,15.2c-34,10-54.1,22.1-64.4,29.5
	c10.8,7.1,69.3,45.2,157.7,45.4c63,0.1,114.1-16.6,154.4-29.8c16.3-5.3,40.6-17,88-34.2c19.4-7,27.5-9.6,37.3-12.3
	c17.9-4.9,54.6-14.8,95.5-14.5c22.6,0.2,41.6,3.4,79.4,13.6C900.3,51.8,915,63.6,971,79.8c54.8,15.8,99.3,25.3,150.5,25
	c56.8-0.4,87.8-15.8,94.4-18.3C1240.7,77.2,1254.4,66.8,1261.5,60.5z"/>
<path class="st0" d="M1070.3,60.5c-8.6-6.4-23.6-16-48.2-24.6c-11.7-4.1-51.1-18.1-99.6-18.5C906.3,17.1,885,19,779.8,50.8
	c-55.8,16.8-60.9,21-110.7,34.5c-82.1,22.3-112.5,22.9-128.4,22.6c-28-0.7-55.9-4.7-83-11.7c-14.6-3.9-23-7.4-39-13.8
	c-37.1-14.9-72.1-28.1-83.9-32.4c-40.2-14.6-91.1-33.1-156.1-32c-32.2,0.7-64.2,5.8-95,15.2c-34,10-54.1,22.1-64.4,29.5
	c10.8,7.1,69.3,45.2,157.7,45.4c62.9,0.1,114.1-16.6,154.4-29.8c16.3-5.3,40.6-17,88-34.2c19.4-7,27.5-9.6,37.3-12.3
	c17.9-4.9,54.6-14.8,95.5-14.5c22.7,0.2,41.7,3.5,79.4,13.6c77.4,20.9,92,32.7,148.1,48.9c54.8,15.8,90.6,26.4,141.1,25.3
	c56.3-1.2,97.1-16.1,103.8-18.7C1049.4,77.2,1063.2,66.8,1070.3,60.5z"/>
<rect y="98.8" class="st1" width="1279" height="6.9"/>
</svg>
